<?xml version="1.0" encoding="utf-8"?>
<!-- Generator: Adobe Adobe Illustrator 24.2.0, SVG Export Plug-In . SVG Version: 6.00 Build 0)  -->
<svg version="1.1" id="Layer_1" xmlns="http://www.w3.org/2000/svg" xmlns:xlink="http://www.w3.org/1999/xlink" x="0px" y="0px"
	 width="400px" height="250px" viewBox="0 0 400 250" style="enable-background:new 0 0 400 250;" xml:space="preserve">
<style type="text/css">
	.st0{clip-path:url(#SVGID_2_);}
	.st1{clip-path:url(#SVGID_4_);fill:#477027;}
	.st2{clip-path:url(#SVGID_6_);fill:#45882A;}
	.st3{clip-path:url(#SVGID_8_);fill:#45882A;}
</style>
<g>
	<g>
		<defs>
			<rect id="SVGID_1_" y="42.5" width="400" height="165"/>
		</defs>
		<clipPath id="SVGID_2_">
			<use xlink:href="#SVGID_1_"  style="overflow:visible;"/>
		</clipPath>
		<g class="st0">
			<defs>
				<rect id="SVGID_3_" x="37.56" y="81.11" width="90.57" height="87.79"/>
			</defs>
			<clipPath id="SVGID_4_">
				<use xlink:href="#SVGID_3_"  style="overflow:visible;"/>
			</clipPath>
			<path class="st1" d="M85.49,94.13c-13.85,0-25.57,9.94-29.55,23.63c5.92-3.28,12.6-5.11,19.68-5.11h15.5
				c1.55,0,2.82,1.39,2.82,3.09c0,1.7-1.27,3.09-2.82,3.09h-15.5c-2.93,0-5.76,0.37-8.51,1.04c-4.56,1.14-8.79,3.16-12.58,5.92
				c-10.22,7.46-16.97,20.22-16.97,34.71v3.09c0,2.57,1.88,4.63,4.23,4.63c2.35,0,4.23-2.07,4.23-4.63v-3.09
				c0-9.4,3.65-17.85,9.48-23.77c3.49,14.57,15.59,25.31,29.99,25.31h0.17c23.28-0.13,42.11-25.26,42.11-56.22
				c0-8.22-1.32-16.04-3.72-23.08c-0.45-1.33-2.24-1.27-2.85-0.02c-3.32,6.79-9.87,11.4-17.4,11.4H85.49z"/>
		</g>
		<g class="st0">
			<defs>
				<rect id="SVGID_5_" y="42.5" width="400" height="165"/>
			</defs>
			<clipPath id="SVGID_6_">
				<use xlink:href="#SVGID_5_"  style="overflow:visible;"/>
			</clipPath>
			<path class="st2" d="M139.3,140.06c-0.37,1.35-1.04,2.33-2,2.94c-0.97,0.61-2.43,0.91-4.39,0.91c-1.64,0-2.79-0.36-3.45-1.07
				c-0.65-0.72-0.98-1.49-0.98-2.3c0-0.85,0.12-1.7,0.37-2.55c0.25-0.85,0.51-1.71,0.8-2.56c1.39-3.91,2.79-7.67,4.2-11.3
				c1.42-3.63,2.84-7.14,4.25-10.53c1.42-3.39,2.82-6.68,4.21-9.87c1.39-3.18,2.78-6.25,4.18-9.21c0.74-1.66,1.63-2.86,2.67-3.6
				c1.04-0.74,2.26-1.11,3.66-1.11c1.76,0,3.25,0.38,4.47,1.14c1.24,0.76,2.05,1.77,2.46,3.03c0.16,0.35,0.52,1.44,1.08,3.26
				c0.55,1.82,1.26,4.11,2.11,6.86c0.87,2.76,1.8,5.73,2.8,8.92c1.01,3.18,2.04,6.33,3.11,9.44c1.06,3.11,2.07,5.97,3.04,8.57
				c0.96,2.6,1.79,4.64,2.49,6.13c0.25,0.46,0.46,0.98,0.65,1.59c0.18,0.61,0.28,1.09,0.28,1.44c0,0.99-0.48,1.9-1.45,2.73
				c-0.97,0.83-2.27,1.25-3.91,1.25c-1.11,0-2.1-0.15-2.98-0.45c-0.88-0.29-1.59-1.01-2.12-2.19c-1.27-2.78-2.46-5.92-3.56-9.41
				c-1.11-3.5-2.14-7.08-3.11-10.72c-0.97-3.66-1.91-7.14-2.83-10.46c-0.92-3.32-1.81-6.22-2.67-8.69
				c-2.01,4.72-3.81,9.31-5.4,13.77c-1.59,4.45-3.04,8.7-4.33,12.74C141.67,132.81,140.45,136.57,139.3,140.06 M138.44,124.93
				c0-1.08,0.28-1.95,0.83-2.62c0.55-0.68,1.17-1.18,1.87-1.51c0.69-0.34,1.27-0.56,1.72-0.64c0.9-0.22,1.97-0.44,3.22-0.64
				c1.24-0.2,2.76-0.31,4.54-0.34c1.79-0.02,3.91,0.12,6.36,0.45c0.37,0.03,1.05,0.03,2.05-0.04c1.01-0.07,2.12-0.16,3.32-0.27
				c1.21-0.12,2.34-0.24,3.38-0.37c1.05-0.14,1.8-0.23,2.24-0.27c1.15-0.14,2.08,0.14,2.8,0.84c0.72,0.69,1.07,1.73,1.07,3.12
				c0,1.26-0.41,2.32-1.24,3.17c-0.81,0.85-1.87,1.54-3.16,2.05c-1.29,0.51-2.6,0.87-3.94,1.07c-1.32,0.2-2.5,0.3-3.53,0.3
				c-2.33,0-4.49,0-6.48-0.02c-1.98-0.02-3.94,0.03-5.87,0.14c-1.92,0.11-4.03,0.32-6.31,0.62c-0.62,0.05-1.26-0.45-1.92-1.51
				C138.76,127.41,138.44,126.23,138.44,124.93"/>
			<path class="st2" d="M181.18,110.2c0.04-1.53,0.48-2.64,1.32-3.33c0.85-0.7,2.29-1.05,4.34-1.05c1.59,0,2.72,0.3,3.4,0.91
				c0.68,0.61,1.02,1.4,1.02,2.39v0.98c0,0.38-0.01,0.81-0.03,1.28c-0.02,0.48-0.08,1.02-0.16,1.64c1.03-2.23,2.32-3.99,3.87-5.29
				c1.56-1.31,3.3-1.96,5.22-1.96c0.66,0,1.51,0.1,2.55,0.3c1.04,0.21,2.13,0.69,3.29,1.44c0.49,0.31,0.97,0.85,1.46,1.64
				c0.5,0.78,0.6,1.97,0.31,3.55c-0.2,1.52-0.66,2.66-1.38,3.42c-0.72,0.76-1.56,1.14-2.54,1.14c-0.41,0-0.79-0.06-1.14-0.19
				c-0.35-0.13-0.71-0.29-1.07-0.46c-0.42-0.22-0.89-0.44-1.42-0.64c-0.53-0.2-1.17-0.3-1.9-0.3c-1.96,0-3.56,1.01-4.8,3.03
				c-1.23,2.02-2.16,4.53-2.81,7.54c-0.04,1.52-0.08,2.95-0.1,4.28c-0.02,1.32-0.04,2.54-0.07,3.67c-0.02,1.12-0.04,2.15-0.06,3.12
				c-0.01,0.96-0.02,1.82-0.02,2.58c0,0.99-0.29,1.76-0.86,2.33c-0.58,0.56-1.22,0.95-1.94,1.19c-0.72,0.25-1.32,0.37-1.82,0.37
				c-1.67,0-2.93-0.29-3.77-0.87c-0.84-0.58-1.38-1.35-1.63-2.32c-0.25-0.96-0.37-2-0.37-3.13c0-0.89,0.03-2,0.1-3.35
				c0.07-1.35,0.15-2.7,0.28-4.04c0.12-1.34,0.24-2.46,0.37-3.37L181.18,110.2z"/>
			<path class="st2" d="M208.82,127.14c0-2.73,0.36-5.37,1.11-7.93c0.74-2.55,1.79-4.84,3.16-6.86c1.37-2.02,3.06-3.62,5.04-4.81
				c1.98-1.18,4.25-1.78,6.78-1.78c1.6,0,3.01,0.28,4.21,0.84c1.21,0.56,2.29,1.35,3.22,2.39c0.2-0.98,0.55-1.79,1.04-2.42
				c0.5-0.63,1.38-0.94,2.65-0.94c1.47,0,2.77,0.39,3.87,1.17c1.11,0.78,1.64,1.78,1.6,2.99c-0.04,1.21-0.23,2.86-0.55,4.95
				c-0.32,2.08-0.61,4.13-0.86,6.14c-0.08,0.63-0.19,1.44-0.34,2.42c-0.14,0.99-0.27,1.97-0.37,2.94c-0.1,0.96-0.16,1.78-0.2,2.44
				c-0.04,0.68-0.06,1.52-0.06,2.53c0,1.01,0.12,1.9,0.36,2.65c0.25,0.76,0.66,1.14,1.24,1.14c0.33,0,0.61-0.09,0.85-0.27
				c0.25-0.18,0.5-0.42,0.75-0.73c0.41-0.32,0.77-0.58,1.07-0.78c0.3-0.2,0.7-0.3,1.2-0.3c0.57,0,1.1,0.21,1.56,0.64
				c0.48,0.43,0.84,1.01,1.11,1.73c0.27,0.71,0.28,1.51,0.03,2.41c-0.16,0.85-0.7,1.73-1.6,2.64c-0.9,0.89-1.96,1.64-3.17,2.25
				c-1.2,0.61-2.4,0.91-3.6,0.91c-1.18,0-2.27-0.28-3.25-0.84c-0.98-0.56-1.81-1.32-2.49-2.28c-0.67-0.97-1.13-2.11-1.38-3.4
				c-1.06,1.75-2.47,3.2-4.21,4.37c-1.74,1.17-3.69,1.74-5.86,1.74c-2.7,0-5.02-0.69-6.95-2.08c-1.92-1.39-3.4-3.28-4.42-5.68
				C209.33,132.92,208.82,130.2,208.82,127.14 M219.2,126.68c0,1.44,0.14,2.73,0.42,3.87c0.29,1.14,0.74,2.05,1.33,2.73
				c0.59,0.68,1.38,1.01,2.36,1.01c0.82,0,1.54-0.21,2.15-0.64c0.62-0.43,1.17-1.01,1.66-1.75c0.5-0.75,0.89-1.61,1.17-2.6
				c0.33-1.03,0.61-2.11,0.86-3.22c0.25-1.11,0.46-2.25,0.62-3.42c0.16-1.17,0.3-2.32,0.42-3.44c0.13-1.13,0.23-2.23,0.31-3.3
				c-0.58-0.58-1.23-1.04-1.97-1.37c-0.74-0.34-1.51-0.52-2.32-0.52c-1.11,0-2.1,0.33-2.96,0.98c-0.86,0.66-1.6,1.56-2.21,2.73
				c-0.61,1.17-1.07,2.51-1.38,4.04C219.35,123.3,219.2,124.93,219.2,126.68"/>
			<path class="st2" d="M252.38,108.39c0.2-1.21,0.72-2.05,1.53-2.51c0.82-0.47,2.03-0.71,3.63-0.71c1.56,0,2.68,0.34,3.35,1.01
				c0.67,0.67,1.01,1.35,1.01,2.07c0,0.37-0.04,0.85-0.13,1.42c-0.08,0.58-0.15,1.24-0.21,1.96c-0.06,0.71-0.11,1.47-0.15,2.28
				c0.53-1.21,1.17-2.45,1.94-3.71c0.76-1.26,1.81-2.3,3.16-3.14c1.36-0.83,3.11-1.25,5.29-1.25c3.6,0,6.3,1.43,8.1,4.28
				c1.81,2.85,2.72,6.59,2.72,11.21c0,2.38-0.15,4.61-0.44,6.7c-0.28,2.08-0.57,4.1-0.86,6.06c-0.28,1.95-0.42,3.93-0.42,5.95
				c0,0.94-0.43,1.8-1.3,2.58c-0.86,0.78-2.19,1.18-3.99,1.18c-1.76,0-2.99-0.41-3.71-1.21c-0.72-0.81-1.07-1.77-1.07-2.89
				c0-2.02,0.16-3.89,0.49-5.61c0.32-1.73,0.64-3.5,0.94-5.29c0.31-1.79,0.47-3.81,0.47-6.06c0-1.79-0.14-3.19-0.41-4.2
				c-0.26-1.01-0.67-1.75-1.22-2.21c-0.55-0.47-1.22-0.71-2-0.71c-0.86,0-1.65,0.34-2.39,1.01c-0.74,0.67-1.41,1.54-2.03,2.62
				c-0.62,1.07-1.16,2.25-1.61,3.53c-0.45,1.28-0.83,2.53-1.16,3.74c0.12,2.46,0.19,4.9,0.21,7.32c0.02,2.42-0.03,4.58-0.15,6.47
				c-0.04,0.94-0.47,1.77-1.27,2.49c-0.79,0.71-2.07,1.07-3.82,1.07c-1.61,0-2.79-0.28-3.55-0.82c-0.75-0.53-1.24-1.23-1.46-2.1
				c-0.23-0.88-0.34-1.81-0.34-2.8c0-1.57,0.06-3.23,0.18-4.97c0.13-1.76,0.36-3.46,0.68-5.11c-0.09-2.47-0.16-4.69-0.23-6.66
				c-0.06-1.97-0.09-3.76-0.11-5.38c-0.03-1.61-0.01-3.05,0.03-4.31C252.11,110.43,252.21,109.32,252.38,108.39"/>
			<path class="st2" d="M290.65,109.06c0.24-1.26,0.67-2.09,1.3-2.49c0.64-0.4,1.7-0.61,3.17-0.61c0.36,0,0.85,0.08,1.45,0.23
				c0.59,0.16,1.19,0.38,1.77,0.68c0.6,0.29,1.09,0.69,1.48,1.21c0.39,0.51,0.59,1.15,0.59,1.92c0,0.85-0.13,1.84-0.38,2.99
				c-0.24,1.14-0.49,2.58-0.76,4.33c-0.26,1.75-0.39,3.99-0.39,6.73c0,2.33,0.1,4.22,0.29,5.68c0.2,1.46,0.55,2.54,1.04,3.24
				c0.49,0.69,1.15,1.03,1.97,1.03c0.7,0,1.42-0.25,2.16-0.77c0.74-0.52,1.43-1.23,2.08-2.12c0.65-0.9,1.2-1.87,1.66-2.9v-3.03
				c0-2.11,0.05-4.2,0.15-6.25c0.11-2.07,0.28-3.98,0.52-5.75c0.25-1.77,0.58-3.23,0.99-4.4c0.32-1,0.81-1.76,1.46-2.3
				c0.66-0.53,1.52-0.8,2.59-0.8c1.52,0,2.63,0.21,3.35,0.64c0.72,0.43,1.18,1.02,1.4,1.78c0.23,0.76,0.34,1.66,0.34,2.69
				c0,2.73-0.14,5.64-0.42,8.71c-0.29,3.07-0.79,6-1.53,8.78c0.03,0.94,0.07,1.9,0.11,2.89c0.04,0.99,0.09,1.97,0.15,2.96
				c0.06,0.99,0.1,1.97,0.1,2.96c0,3.18-0.22,6.27-0.65,9.28c-0.42,3-1.17,5.72-2.23,8.14c-1.07,2.42-2.57,4.34-4.52,5.75
				c-1.94,1.41-4.42,2.12-7.45,2.12c-3.29,0-6.11-0.72-8.46-2.15c-2.36-1.44-4.06-3.14-5.12-5.11c-0.25-0.49-0.41-0.92-0.47-1.3
				c-0.06-0.38-0.08-0.69-0.08-0.91c0-0.9,0.28-1.73,0.83-2.48c0.55-0.74,1.21-1.34,1.97-1.82c0.76-0.46,1.42-0.69,2-0.69
				c0.56,0,1.05,0.15,1.46,0.46c0.41,0.32,0.82,0.79,1.24,1.43c0.85,1.29,1.81,2.23,2.85,2.81c1.05,0.59,2.15,0.89,3.29,0.89
				c1.47,0,2.63-0.51,3.47-1.51c0.84-1.01,1.46-2.65,1.85-4.92c0.39-2.27,0.69-5.26,0.89-8.98c-0.99,1.66-2.09,3.04-3.3,4.12
				c-1.2,1.07-2.71,1.6-4.51,1.6c-2.17,0-3.98-0.5-5.43-1.48c-1.46-0.99-2.62-2.37-3.48-4.17c-0.86-1.79-1.46-3.86-1.81-6.22
				c-0.35-2.36-0.52-4.89-0.52-7.57c0-1.76,0.08-3.59,0.24-5.49c0.16-1.91,0.36-3.73,0.59-5.45
				C290.16,111.74,290.39,110.27,290.65,109.06"/>
			<path class="st2" d="M323.81,127.14c0-2.73,0.36-5.37,1.1-7.93c0.74-2.55,1.79-4.84,3.16-6.86c1.37-2.02,3.06-3.62,5.04-4.81
				c1.98-1.18,4.24-1.78,6.78-1.78c1.6,0,3.01,0.28,4.21,0.84c1.21,0.56,2.29,1.35,3.22,2.39c0.2-0.98,0.55-1.79,1.04-2.42
				c0.5-0.63,1.38-0.94,2.65-0.94c1.47,0,2.77,0.39,3.87,1.17c1.11,0.78,1.64,1.78,1.59,2.99c-0.04,1.21-0.23,2.86-0.55,4.95
				c-0.32,2.08-0.61,4.13-0.86,6.14c-0.08,0.63-0.19,1.44-0.34,2.42c-0.14,0.99-0.27,1.97-0.37,2.94c-0.1,0.96-0.16,1.78-0.2,2.44
				c-0.04,0.68-0.06,1.52-0.06,2.53c0,1.01,0.12,1.9,0.36,2.65c0.25,0.76,0.66,1.14,1.24,1.14c0.33,0,0.61-0.09,0.85-0.27
				c0.25-0.18,0.5-0.42,0.75-0.73c0.41-0.32,0.77-0.58,1.07-0.78c0.3-0.2,0.7-0.3,1.2-0.3c0.57,0,1.09,0.21,1.56,0.64
				c0.48,0.43,0.85,1.01,1.11,1.73c0.27,0.71,0.28,1.51,0.03,2.41c-0.16,0.85-0.7,1.73-1.59,2.64c-0.9,0.89-1.96,1.64-3.17,2.25
				c-1.2,0.61-2.4,0.91-3.6,0.91c-1.18,0-2.27-0.28-3.25-0.84c-0.97-0.56-1.8-1.32-2.49-2.28c-0.67-0.97-1.13-2.11-1.38-3.4
				c-1.07,1.75-2.47,3.2-4.21,4.37c-1.74,1.17-3.69,1.74-5.86,1.74c-2.7,0-5.02-0.69-6.95-2.08c-1.92-1.39-3.4-3.28-4.42-5.68
				C324.31,132.92,323.81,130.2,323.81,127.14 M334.18,126.68c0,1.44,0.14,2.73,0.42,3.87c0.29,1.14,0.74,2.05,1.33,2.73
				c0.59,0.68,1.38,1.01,2.36,1.01c0.82,0,1.54-0.21,2.15-0.64c0.62-0.43,1.17-1.01,1.66-1.75c0.5-0.75,0.89-1.61,1.17-2.6
				c0.32-1.03,0.61-2.11,0.86-3.22c0.25-1.11,0.45-2.25,0.62-3.42c0.16-1.17,0.3-2.32,0.42-3.44c0.13-1.13,0.23-2.23,0.31-3.3
				c-0.58-0.58-1.23-1.04-1.97-1.37c-0.74-0.34-1.51-0.52-2.33-0.52c-1.11,0-2.09,0.33-2.96,0.98c-0.86,0.66-1.6,1.56-2.21,2.73
				c-0.61,1.17-1.07,2.51-1.38,4.04C334.33,123.3,334.18,124.93,334.18,126.68"/>
			<path class="st2" d="M161.12,147.59c0.01-0.21,0.06-0.37,0.15-0.48c0.08-0.12,0.24-0.2,0.47-0.23c0.12-0.02,0.29-0.04,0.52-0.05
				c0.24-0.01,0.49-0.02,0.75-0.02c0.26-0.01,0.48-0.02,0.67-0.02c0.81,0,1.52,0.13,2.13,0.39c0.62,0.26,1.11,0.64,1.46,1.12
				c0.36,0.49,0.54,1.09,0.54,1.8c0,0.56-0.12,1.05-0.36,1.48c-0.24,0.43-0.55,0.78-0.94,1.05c-0.39,0.28-0.81,0.48-1.27,0.62
				c-0.45,0.13-0.89,0.2-1.32,0.2c-0.21,0-0.39,0-0.54-0.02c-0.14-0.02-0.28-0.04-0.42-0.07c-0.03,0.65-0.06,1.28-0.08,1.87
				c-0.02,0.58-0.04,1.17-0.06,1.75c-0.01,0.28-0.13,0.46-0.34,0.57c-0.21,0.11-0.47,0.16-0.78,0.16c-0.38,0-0.64-0.07-0.78-0.21
				c-0.14-0.14-0.21-0.35-0.21-0.62c0.1-1.53,0.15-3.08,0.18-4.65C160.91,150.65,160.99,149.11,161.12,147.59 M163.06,151.68
				c0.14,0.03,0.26,0.06,0.37,0.07c0.12,0.01,0.25,0.02,0.39,0.02c0.25,0,0.48-0.04,0.7-0.12c0.22-0.09,0.41-0.22,0.57-0.37
				c0.17-0.15,0.31-0.33,0.41-0.53c0.1-0.2,0.15-0.43,0.15-0.68c0-0.24-0.04-0.45-0.13-0.62c-0.08-0.19-0.19-0.35-0.34-0.48
				c-0.14-0.14-0.32-0.25-0.54-0.32c-0.22-0.07-0.45-0.11-0.7-0.11c-0.16,0-0.29,0.01-0.42,0.02c-0.12,0.01-0.23,0.03-0.32,0.05
				c-0.01,0.31-0.03,0.62-0.05,0.93c-0.01,0.3-0.03,0.62-0.05,0.96C163.08,150.82,163.06,151.22,163.06,151.68"/>
			<path class="st2" d="M169.21,147.02c0.02-0.27,0.11-0.47,0.26-0.59c0.15-0.12,0.42-0.18,0.81-0.18c0.29,0,0.51,0.04,0.65,0.12
				c0.14,0.09,0.23,0.19,0.26,0.32c0.04,0.13,0.06,0.27,0.06,0.41c-0.02,0.26-0.06,0.66-0.11,1.19c-0.04,0.54-0.1,1.29-0.16,2.25
				c-0.06,0.95-0.12,2.19-0.16,3.72c0,0.48-0.01,0.93-0.03,1.37c-0.01,0.44-0.02,0.83-0.03,1.17c-0.01,0.31-0.09,0.53-0.24,0.64
				c-0.15,0.12-0.41,0.18-0.78,0.18c-0.38,0-0.65-0.06-0.81-0.18c-0.16-0.12-0.24-0.35-0.23-0.69c0.02-0.78,0.05-1.59,0.08-2.41
				c0.03-0.83,0.06-1.66,0.1-2.49c0.04-0.83,0.09-1.65,0.15-2.46C169.06,148.58,169.13,147.79,169.21,147.02"/>
			<path class="st2" d="M172.15,154.28c0-0.56,0.07-1.09,0.23-1.6c0.15-0.52,0.36-0.99,0.64-1.39c0.28-0.41,0.62-0.74,1.02-0.98
				c0.4-0.25,0.86-0.37,1.38-0.37c0.32,0,0.61,0.06,0.84,0.18c0.25,0.11,0.47,0.27,0.67,0.48c0.04-0.2,0.12-0.36,0.21-0.48
				c0.1-0.13,0.28-0.2,0.54-0.2c0.3,0,0.56,0.08,0.78,0.23c0.23,0.16,0.33,0.36,0.33,0.61c0,0.25-0.04,0.59-0.12,1.01
				c-0.07,0.42-0.12,0.83-0.16,1.25c-0.03,0.13-0.05,0.3-0.08,0.5c-0.03,0.19-0.04,0.39-0.07,0.59c-0.02,0.19-0.04,0.36-0.05,0.5
				v0.52c0,0.2,0.02,0.38,0.06,0.53c0.05,0.16,0.13,0.23,0.24,0.23c0.07,0,0.13-0.02,0.18-0.05c0.05-0.03,0.1-0.08,0.15-0.14
				c0.08-0.07,0.16-0.12,0.23-0.16c0.07-0.05,0.15-0.07,0.24-0.07c0.12,0,0.22,0.05,0.31,0.14c0.1,0.08,0.17,0.2,0.23,0.35
				c0.05,0.14,0.06,0.3,0.02,0.48c-0.03,0.17-0.14,0.35-0.32,0.53c-0.19,0.18-0.4,0.33-0.65,0.46c-0.25,0.12-0.5,0.18-0.73,0.18
				c-0.24,0-0.46-0.05-0.67-0.16c-0.2-0.12-0.37-0.27-0.5-0.47c-0.13-0.2-0.22-0.43-0.28-0.71c-0.22,0.36-0.5,0.66-0.86,0.89
				c-0.35,0.24-0.74,0.36-1.19,0.36c-0.55,0-1.02-0.14-1.42-0.41c-0.39-0.29-0.69-0.67-0.89-1.16
				C172.25,155.47,172.15,154.92,172.15,154.28 M174.26,154.2c0,0.29,0.02,0.55,0.08,0.78c0.05,0.24,0.14,0.43,0.26,0.57
				c0.13,0.13,0.29,0.2,0.49,0.2c0.16,0,0.31-0.04,0.44-0.13c0.13-0.09,0.24-0.21,0.34-0.36c0.1-0.15,0.17-0.33,0.23-0.53
				c0.06-0.21,0.12-0.43,0.18-0.66c0.05-0.22,0.1-0.46,0.13-0.69c0.03-0.24,0.06-0.47,0.08-0.69c0.02-0.24,0.04-0.46,0.07-0.68
				c-0.12-0.12-0.26-0.2-0.41-0.27c-0.14-0.07-0.3-0.11-0.47-0.11c-0.23,0-0.43,0.07-0.6,0.2c-0.17,0.13-0.32,0.32-0.45,0.55
				c-0.12,0.24-0.21,0.51-0.28,0.82C174.29,153.51,174.26,153.84,174.26,154.2"/>
			<path class="st2" d="M181,150.47c0.04-0.25,0.15-0.42,0.31-0.52c0.17-0.09,0.42-0.14,0.75-0.14c0.31,0,0.54,0.07,0.67,0.21
				c0.14,0.14,0.21,0.27,0.21,0.41c0,0.08-0.01,0.19-0.03,0.3c-0.01,0.12-0.02,0.25-0.03,0.39c-0.01,0.14-0.02,0.3-0.03,0.46
				c0.11-0.25,0.24-0.5,0.39-0.75c0.16-0.26,0.38-0.47,0.65-0.64c0.27-0.17,0.63-0.25,1.08-0.25c0.74,0,1.28,0.29,1.64,0.87
				c0.36,0.57,0.55,1.33,0.55,2.26c0,0.49-0.03,0.94-0.1,1.37c-0.06,0.43-0.11,0.84-0.16,1.23c-0.06,0.39-0.08,0.8-0.08,1.21
				c0,0.19-0.09,0.37-0.28,0.54c-0.17,0.15-0.44,0.23-0.8,0.23c-0.36,0-0.61-0.08-0.76-0.25c-0.14-0.17-0.21-0.36-0.21-0.59
				c0-0.4,0.03-0.78,0.1-1.14l0.2-1.07c0.06-0.37,0.1-0.78,0.1-1.23c0-0.36-0.03-0.65-0.08-0.85c-0.06-0.21-0.14-0.37-0.26-0.46
				c-0.11-0.09-0.24-0.14-0.41-0.14c-0.17,0-0.34,0.07-0.49,0.21c-0.16,0.13-0.29,0.31-0.42,0.53c-0.12,0.21-0.23,0.45-0.32,0.71
				c-0.09,0.26-0.16,0.52-0.23,0.77c0.03,0.5,0.05,1,0.05,1.5c0,0.49-0.01,0.92-0.03,1.3c-0.01,0.19-0.1,0.36-0.26,0.52
				c-0.16,0.14-0.42,0.21-0.78,0.21c-0.32,0-0.56-0.06-0.72-0.18c-0.16-0.11-0.25-0.25-0.29-0.43c-0.04-0.18-0.07-0.37-0.07-0.57
				c0-0.31,0.01-0.64,0.03-1c0.02-0.36,0.07-0.7,0.13-1.05c-0.01-0.5-0.03-0.95-0.05-1.35c-0.01-0.4-0.02-0.77-0.02-1.09v-0.87
				C180.94,150.89,180.97,150.66,181,150.47"/>
			<path class="st2" d="M189.23,148.8c0.02-0.21,0.1-0.38,0.23-0.5c0.13-0.13,0.35-0.19,0.67-0.19c0.2,0,0.41,0.03,0.6,0.09
				c0.2,0.05,0.35,0.13,0.45,0.25c0.11,0.11,0.15,0.26,0.11,0.46c-0.06,0.48-0.11,0.97-0.16,1.48c-0.04,0.51-0.08,1.03-0.11,1.57
				c-0.02,0.53-0.02,1.08,0,1.64c0.01,0.58,0.04,1.02,0.08,1.32c0.05,0.3,0.11,0.49,0.18,0.59c0.07,0.1,0.13,0.14,0.2,0.14
				c0.07,0,0.15-0.03,0.24-0.11c0.1-0.08,0.19-0.17,0.28-0.27c0.08-0.11,0.15-0.2,0.21-0.27c0.04-0.06,0.1-0.11,0.16-0.16
				c0.07-0.06,0.16-0.09,0.26-0.09c0.12,0,0.24,0.04,0.37,0.12c0.14,0.07,0.25,0.17,0.34,0.3c0.1,0.13,0.15,0.28,0.15,0.46
				c0,0.06-0.02,0.17-0.05,0.32c-0.03,0.14-0.15,0.33-0.34,0.55c-0.23,0.24-0.48,0.44-0.76,0.61c-0.27,0.17-0.54,0.29-0.81,0.37
				c-0.26,0.07-0.5,0.11-0.7,0.11c-0.53,0-0.93-0.15-1.19-0.45c-0.26-0.31-0.45-0.72-0.55-1.23c-0.08-0.4-0.13-0.79-0.15-1.17
				c-0.01-0.39-0.02-0.79-0.02-1.19c0-0.56,0-1.1,0.02-1.62c0.02-0.52,0.05-1.04,0.1-1.55C189.09,149.88,189.15,149.35,189.23,148.8
				 M188.61,151.79c-0.16,0.01-0.29-0.05-0.41-0.19c-0.11-0.14-0.16-0.35-0.16-0.62c0-0.26,0.05-0.45,0.16-0.57
				c0.12-0.13,0.25-0.2,0.41-0.21c0.22-0.02,0.49-0.04,0.81-0.05c0.32-0.01,0.67-0.02,1.04-0.02c0.37-0.01,0.74-0.02,1.12-0.02h1.11
				c0.14,0,0.27,0.07,0.39,0.19c0.13,0.12,0.2,0.33,0.2,0.64c0,0.26-0.07,0.46-0.2,0.57c-0.13,0.12-0.26,0.18-0.39,0.18
				c-0.36,0-0.71,0.01-1.04,0.02c-0.34,0-0.68,0.01-1.01,0.02c-0.33,0-0.66,0.01-1.01,0.02
				C189.3,151.75,188.96,151.77,188.61,151.79"/>
			<path class="st2" d="M199.23,150.74c0.07,0.09,0.12,0.17,0.16,0.27c0.04,0.1,0.06,0.2,0.06,0.32c0,0.12-0.04,0.26-0.11,0.41
				c-0.08,0.16-0.17,0.29-0.29,0.39c-0.12,0.11-0.26,0.16-0.41,0.16c-0.12,0-0.22-0.02-0.29-0.07c-0.08-0.04-0.15-0.1-0.21-0.16
				c-0.12-0.13-0.27-0.25-0.46-0.37c-0.19-0.12-0.39-0.18-0.6-0.18c-0.14,0-0.27,0.04-0.39,0.13c-0.11,0.07-0.16,0.19-0.16,0.34
				c0,0.18,0.08,0.33,0.24,0.45c0.17,0.12,0.46,0.29,0.85,0.52c0.32,0.19,0.61,0.39,0.86,0.59c0.26,0.19,0.46,0.42,0.6,0.69
				c0.15,0.26,0.23,0.61,0.23,1.03c0,0.42-0.11,0.8-0.31,1.16c-0.2,0.35-0.48,0.65-0.86,0.87c-0.38,0.21-0.82,0.32-1.32,0.32
				c-0.47,0-0.93-0.07-1.38-0.2c-0.45-0.14-0.83-0.36-1.14-0.66c-0.07-0.07-0.13-0.15-0.18-0.23c-0.06-0.08-0.08-0.2-0.08-0.34
				c0-0.24,0.07-0.45,0.23-0.66c0.15-0.21,0.31-0.32,0.49-0.32c0.07,0,0.12,0.01,0.16,0.04c0.05,0.01,0.11,0.04,0.18,0.09
				c0.26,0.19,0.51,0.35,0.75,0.46c0.25,0.12,0.51,0.18,0.8,0.18c0.2,0,0.34-0.03,0.44-0.11c0.11-0.07,0.16-0.17,0.16-0.29
				c0-0.2-0.09-0.37-0.26-0.5c-0.17-0.13-0.41-0.27-0.7-0.43c-0.47-0.23-0.84-0.47-1.11-0.71c-0.27-0.25-0.46-0.5-0.57-0.77
				c-0.11-0.27-0.16-0.58-0.16-0.91c0-0.44,0.11-0.83,0.34-1.18c0.23-0.36,0.54-0.63,0.93-0.84c0.4-0.2,0.85-0.3,1.35-0.3
				c0.39,0,0.79,0.07,1.19,0.2C198.66,150.27,198.99,150.47,199.23,150.74"/>
			<path class="st2" d="M213.99,155.64c0.2,0.1,0.32,0.21,0.37,0.36c0.05,0.13,0.08,0.27,0.08,0.41c0,0.26-0.06,0.5-0.2,0.71
				c-0.12,0.21-0.28,0.36-0.47,0.45c-0.19,0.09-0.37,0.09-0.57,0c-0.68-0.34-1.32-0.71-1.9-1.1c-0.58-0.39-1.1-0.79-1.56-1.18
				c-0.45-0.39-0.84-0.75-1.16-1.07c-0.3-0.32-0.54-0.57-0.7-0.75c-0.32-0.37-0.6-0.72-0.83-1.05c-0.24-0.33-0.44-0.65-0.6-0.96
				c-0.16-0.32-0.29-0.63-0.37-0.94c-0.08-0.31-0.12-0.62-0.12-0.95c0-0.44,0.13-0.86,0.39-1.26c0.27-0.41,0.64-0.75,1.11-1.01
				c0.46-0.26,1-0.39,1.59-0.39c0.46,0,0.88,0.12,1.25,0.37c0.37,0.24,0.65,0.53,0.86,0.89c0.22,0.35,0.33,0.71,0.33,1.09
				c0,0.42-0.11,0.82-0.31,1.21c-0.2,0.39-0.47,0.78-0.81,1.14c-0.34,0.36-0.73,0.72-1.19,1.1c-0.34,0.29-0.66,0.58-0.96,0.89
				c-0.3,0.3-0.55,0.58-0.75,0.85c-0.2,0.28-0.29,0.53-0.29,0.77c0,0.23,0.08,0.4,0.26,0.53c0.18,0.12,0.42,0.18,0.72,0.18
				c0.25,0,0.48-0.04,0.7-0.12c0.23-0.08,0.46-0.22,0.68-0.43c0.23-0.2,0.49-0.49,0.78-0.85c0.3-0.39,0.58-0.78,0.83-1.18
				c0.26-0.39,0.55-0.8,0.86-1.23c0.05-0.07,0.12-0.11,0.2-0.12c0.07-0.02,0.14-0.03,0.2-0.03c0.17,0,0.34,0.05,0.5,0.16
				c0.16,0.11,0.3,0.25,0.42,0.41c0.12,0.17,0.18,0.33,0.18,0.5c0,0.06-0.01,0.13-0.03,0.21c-0.03,0.07-0.06,0.16-0.12,0.25
				c-0.06,0.1-0.11,0.19-0.18,0.27c-0.06,0.09-0.12,0.18-0.2,0.29c-0.08,0.1-0.16,0.21-0.24,0.34c-0.14,0.21-0.29,0.43-0.46,0.64
				c-0.16,0.21-0.33,0.43-0.5,0.64c-0.24,0.29-0.48,0.55-0.72,0.8c-0.24,0.24-0.51,0.45-0.8,0.64c-0.28,0.19-0.61,0.34-0.99,0.44
				c-0.38,0.11-0.83,0.16-1.33,0.16c-0.34,0-0.68-0.04-1.03-0.13c-0.34-0.08-0.65-0.2-0.93-0.37c-0.27-0.18-0.5-0.4-0.67-0.68
				c-0.16-0.27-0.24-0.61-0.24-1c0-0.4,0.08-0.8,0.26-1.19c0.18-0.39,0.42-0.78,0.72-1.16c0.3-0.38,0.64-0.74,0.99-1.09
				c0.36-0.34,0.71-0.66,1.06-0.95c0.42-0.34,0.74-0.61,0.94-0.82c0.22-0.2,0.36-0.37,0.42-0.52c0.07-0.15,0.11-0.32,0.11-0.5
				c0-0.14-0.03-0.27-0.1-0.37c-0.06-0.11-0.14-0.19-0.26-0.27c-0.12-0.07-0.27-0.11-0.44-0.11c-0.14,0-0.28,0.05-0.42,0.16
				c-0.14,0.1-0.26,0.23-0.34,0.39c-0.09,0.17-0.13,0.35-0.13,0.55c0,0.28,0.1,0.6,0.31,0.98c0.21,0.37,0.54,0.82,0.99,1.34
				c0.16,0.18,0.43,0.46,0.81,0.82c0.38,0.35,0.83,0.74,1.37,1.16c0.29,0.23,0.58,0.44,0.86,0.64c0.28,0.2,0.56,0.39,0.84,0.55
				C213.39,155.33,213.69,155.49,213.99,155.64"/>
			<path class="st2" d="M220.77,147.59c0.01-0.21,0.06-0.37,0.15-0.48c0.08-0.12,0.24-0.2,0.47-0.23c0.12-0.02,0.29-0.04,0.52-0.05
				c0.24-0.01,0.49-0.02,0.75-0.02c0.26-0.01,0.48-0.02,0.67-0.02c0.81,0,1.52,0.13,2.13,0.39c0.62,0.26,1.11,0.64,1.46,1.12
				c0.36,0.49,0.54,1.09,0.54,1.8c0,0.56-0.12,1.05-0.36,1.48c-0.24,0.43-0.55,0.78-0.94,1.05c-0.39,0.28-0.81,0.48-1.27,0.62
				c-0.45,0.13-0.88,0.2-1.32,0.2c-0.21,0-0.39,0-0.54-0.02c-0.14-0.02-0.29-0.04-0.42-0.07c-0.03,0.65-0.06,1.28-0.08,1.87
				c-0.03,0.58-0.05,1.17-0.07,1.75c-0.01,0.28-0.13,0.46-0.34,0.57c-0.21,0.11-0.47,0.16-0.78,0.16c-0.38,0-0.64-0.07-0.78-0.21
				c-0.14-0.14-0.21-0.35-0.21-0.62c0.1-1.53,0.15-3.08,0.18-4.65C220.55,150.65,220.64,149.11,220.77,147.59 M222.7,151.68
				c0.14,0.03,0.26,0.06,0.37,0.07c0.12,0.01,0.25,0.02,0.39,0.02c0.25,0,0.48-0.04,0.7-0.12c0.22-0.09,0.41-0.22,0.57-0.37
				c0.17-0.15,0.31-0.33,0.41-0.53c0.1-0.2,0.15-0.43,0.15-0.68c0-0.24-0.04-0.45-0.13-0.62c-0.08-0.19-0.19-0.35-0.34-0.48
				c-0.14-0.14-0.32-0.25-0.54-0.32c-0.22-0.07-0.45-0.11-0.7-0.11c-0.16,0-0.29,0.01-0.42,0.02c-0.12,0.01-0.23,0.03-0.32,0.05
				c-0.01,0.31-0.03,0.62-0.05,0.93c-0.01,0.3-0.03,0.62-0.05,0.96C222.72,150.82,222.71,151.22,222.7,151.68"/>
			<path class="st2" d="M231.1,149.92c0.2,0,0.44,0.03,0.7,0.07c0.27,0.05,0.52,0.12,0.76,0.19c0.24,0.09,0.41,0.19,0.54,0.3
				c0.4,0.33,0.69,0.78,0.88,1.32c0.18,0.55,0.28,1.14,0.28,1.76c0,0.5-0.07,0.99-0.2,1.46c-0.12,0.48-0.31,0.91-0.57,1.3
				c-0.26,0.38-0.59,0.69-0.97,0.91c-0.39,0.23-0.85,0.34-1.38,0.34c-0.61,0-1.14-0.09-1.58-0.29c-0.45-0.2-0.81-0.48-1.11-0.84
				c-0.28-0.36-0.5-0.76-0.64-1.21c-0.13-0.47-0.2-0.95-0.2-1.46c0-0.5,0.06-0.97,0.2-1.43c0.14-0.47,0.35-0.87,0.64-1.23
				c0.29-0.37,0.65-0.66,1.09-0.87C229.98,150.04,230.5,149.92,231.1,149.92 M229.7,153.71c0,0.33,0.04,0.67,0.13,1
				c0.1,0.32,0.24,0.59,0.44,0.8c0.2,0.2,0.46,0.3,0.76,0.3c0.22,0,0.4-0.06,0.54-0.2c0.15-0.13,0.27-0.3,0.36-0.51
				c0.08-0.21,0.15-0.45,0.18-0.7c0.04-0.25,0.07-0.49,0.07-0.73c0-0.52-0.07-0.93-0.2-1.23c-0.12-0.31-0.28-0.54-0.47-0.69
				c-0.1-0.02-0.19-0.04-0.26-0.05c-0.06-0.01-0.14-0.02-0.21-0.02c-0.25,0-0.46,0.06-0.64,0.18c-0.17,0.12-0.31,0.28-0.4,0.46
				c-0.1,0.19-0.18,0.4-0.23,0.64C229.72,153.21,229.7,153.46,229.7,153.71"/>
			<path class="st2" d="M236.01,148.8c0.02-0.21,0.1-0.38,0.23-0.5c0.13-0.13,0.35-0.19,0.67-0.19c0.2,0,0.41,0.03,0.6,0.09
				c0.19,0.05,0.35,0.13,0.45,0.25c0.11,0.11,0.15,0.26,0.12,0.46c-0.06,0.48-0.11,0.97-0.16,1.48c-0.04,0.51-0.08,1.03-0.11,1.57
				c-0.03,0.53-0.03,1.08,0,1.64c0.01,0.58,0.04,1.02,0.08,1.32c0.05,0.3,0.11,0.49,0.18,0.59c0.06,0.1,0.13,0.14,0.2,0.14
				c0.07,0,0.16-0.03,0.24-0.11c0.1-0.08,0.19-0.17,0.28-0.27c0.08-0.11,0.16-0.2,0.21-0.27c0.04-0.06,0.1-0.11,0.16-0.16
				c0.07-0.06,0.16-0.09,0.26-0.09c0.12,0,0.24,0.04,0.37,0.12c0.14,0.07,0.25,0.17,0.34,0.3c0.1,0.13,0.15,0.28,0.15,0.46
				c0,0.06-0.02,0.17-0.05,0.32c-0.03,0.14-0.15,0.33-0.34,0.55c-0.23,0.24-0.48,0.44-0.76,0.61c-0.27,0.17-0.55,0.29-0.81,0.37
				c-0.26,0.07-0.5,0.11-0.7,0.11c-0.53,0-0.93-0.15-1.19-0.45c-0.26-0.31-0.45-0.72-0.55-1.23c-0.08-0.4-0.13-0.79-0.15-1.17
				c-0.01-0.39-0.02-0.79-0.02-1.19c0-0.56,0-1.1,0.02-1.62c0.02-0.52,0.05-1.04,0.1-1.55C235.87,149.88,235.93,149.35,236.01,148.8
				 M235.39,151.79c-0.16,0.01-0.29-0.05-0.41-0.19c-0.11-0.14-0.16-0.35-0.16-0.62c0-0.26,0.05-0.45,0.16-0.57
				c0.12-0.13,0.25-0.2,0.41-0.21c0.22-0.02,0.49-0.04,0.81-0.05c0.32-0.01,0.67-0.02,1.04-0.02c0.37-0.01,0.74-0.02,1.12-0.02h1.11
				c0.14,0,0.27,0.07,0.39,0.19c0.13,0.12,0.2,0.33,0.2,0.64c0,0.26-0.06,0.46-0.2,0.57c-0.13,0.12-0.26,0.18-0.39,0.18
				c-0.36,0-0.71,0.01-1.04,0.02c-0.34,0-0.68,0.01-1.01,0.02c-0.33,0-0.66,0.01-1.01,0.02
				C236.08,151.75,235.73,151.77,235.39,151.79"/>
			<path class="st2" d="M246,150.74c0.06,0.09,0.12,0.17,0.16,0.27c0.04,0.1,0.07,0.2,0.07,0.32c0,0.12-0.04,0.26-0.12,0.41
				c-0.08,0.16-0.17,0.29-0.29,0.39c-0.12,0.11-0.26,0.16-0.41,0.16c-0.12,0-0.22-0.02-0.29-0.07c-0.08-0.04-0.15-0.1-0.21-0.16
				c-0.12-0.13-0.27-0.25-0.45-0.37c-0.19-0.12-0.39-0.18-0.6-0.18c-0.14,0-0.27,0.04-0.39,0.13c-0.11,0.07-0.16,0.19-0.16,0.34
				c0,0.18,0.08,0.33,0.24,0.45c0.17,0.12,0.45,0.29,0.84,0.52c0.32,0.19,0.61,0.39,0.86,0.59c0.26,0.19,0.46,0.42,0.6,0.69
				c0.15,0.26,0.23,0.61,0.23,1.03c0,0.42-0.11,0.8-0.31,1.16c-0.2,0.35-0.48,0.65-0.86,0.87c-0.38,0.21-0.82,0.32-1.32,0.32
				c-0.47,0-0.93-0.07-1.38-0.2c-0.45-0.14-0.83-0.36-1.14-0.66c-0.06-0.07-0.13-0.15-0.18-0.23c-0.06-0.08-0.08-0.2-0.08-0.34
				c0-0.24,0.07-0.45,0.23-0.66c0.15-0.21,0.32-0.32,0.49-0.32c0.06,0,0.12,0.01,0.16,0.04c0.05,0.01,0.11,0.04,0.18,0.09
				c0.26,0.19,0.51,0.35,0.75,0.46c0.25,0.12,0.51,0.18,0.8,0.18c0.2,0,0.34-0.03,0.44-0.11c0.11-0.07,0.16-0.17,0.16-0.29
				c0-0.2-0.09-0.37-0.26-0.5c-0.18-0.13-0.41-0.27-0.7-0.43c-0.47-0.23-0.84-0.47-1.11-0.71c-0.27-0.25-0.46-0.5-0.57-0.77
				c-0.11-0.27-0.16-0.58-0.16-0.91c0-0.44,0.11-0.83,0.34-1.18c0.23-0.36,0.54-0.63,0.93-0.84c0.4-0.2,0.85-0.3,1.35-0.3
				c0.39,0,0.79,0.07,1.19,0.2C245.44,150.27,245.76,150.47,246,150.74"/>
		</g>
		<g class="st0">
			<defs>
				<rect id="SVGID_7_" y="42.5" width="400" height="165"/>
			</defs>
			<clipPath id="SVGID_8_">
				<use xlink:href="#SVGID_7_"  style="overflow:visible;"/>
			</clipPath>
			<path class="st3" d="M129.43,153.26v-1.13c0-0.1,0.08-0.19,0.18-0.19h28.43c0.1,0,0.18,0.09,0.18,0.19v1.13
				c0,0.1-0.08,0.19-0.18,0.19h-28.43C129.51,153.45,129.43,153.36,129.43,153.26"/>
			<path class="st3" d="M247.03,154.01v-1.13c0-0.1,0.08-0.19,0.18-0.19h38.83c0.1,0,0.18,0.09,0.18,0.19v1.13
				c0,0.1-0.08,0.19-0.18,0.19h-38.83C247.11,154.2,247.03,154.11,247.03,154.01"/>
		</g>
	</g>
</g>
</svg>
